<svg width="168" height="65" viewBox="0 0 168 65" fill="none" xmlns="http://www.w3.org/2000/svg">
<path d="M66.4688 26.4375C66.4479 26.4792 66.4688 26.4583 66.5312 26.375V6.8125L43.25 39.4688C43.2917 39.3854 43.2708 39.3958 43.1875 39.5C43.1458 39.5833 43.0938 39.6562 43.0312 39.7188C42.9896 39.7396 42.9479 39.7604 42.9062 39.7812C42.8021 39.8854 42.7812 39.9062 42.8438 39.8438C42.8021 39.8854 42.7396 39.9271 42.6562 39.9688C42.5521 40.0312 42.4375 40.0729 42.3125 40.0938C42.2917 40.0938 42.2708 40.1042 42.25 40.125C42.125 40.1458 42.0104 40.1562 41.9062 40.1562C41.8021 40.1562 41.6875 40.1458 41.5625 40.125C41.5417 40.1042 41.5208 40.0938 41.5 40.0938C41.375 40.0729 41.2604 40.0312 41.1562 39.9688C41.1771 39.9896 41.1771 39.9896 41.1562 39.9688C41.0729 39.9271 41 39.8854 40.9375 39.8438C41.0208 39.9062 41 39.8854 40.875 39.7812C40.8542 39.7812 40.8229 39.7604 40.7812 39.7188C40.7188 39.6562 40.6562 39.5833 40.5938 39.5C40.5104 39.3958 40.5 39.3854 40.5625 39.4688L17.2812 6.8125V26.375C17.3646 26.4792 17.3854 26.5 17.3438 26.4375L41.5312 60.0938L66.4688 26.4375ZM80.8125 0.46875C81.125 0.15625 81.5104 0 81.9688 0C82.4271 0 82.8125 0.15625 83.125 0.46875C83.4583 0.802083 83.625 1.19792 83.625 1.65625V62.3438C83.625 62.8021 83.4583 63.1979 83.125 63.5312C82.8125 63.8438 82.4271 64 81.9688 64H68.1562C67.7188 64 67.3333 63.8438 67 63.5312C66.6875 63.1979 66.5312 62.8021 66.5312 62.3438V31.9062L43.2188 63.3438C42.8854 63.7812 42.4479 64 41.9062 64C41.7812 64 41.6458 63.9792 41.5 63.9375C41.3542 63.9792 41.2188 64 41.0938 64C40.3646 64 39.8542 63.6667 39.5625 63L17.2812 32.0312V62.3438C17.2812 62.8021 17.125 63.1979 16.8125 63.5312C16.4792 63.8438 16.0833 64 15.625 64H1.84375C1.38542 64 0.989583 63.8438 0.65625 63.5312C0.34375 63.1979 0.1875 62.8021 0.1875 62.3438V1.65625C0.1875 1.19792 0.34375 0.802083 0.65625 0.46875C0.989583 0.15625 1.38542 0 1.84375 0C2.30208 0 2.6875 0.15625 3 0.46875C3.33333 0.802083 3.5 1.19792 3.5 1.65625V60.6875H13.9688V1.71875C13.9688 1.59375 13.9792 1.45833 14 1.3125C14 1.33333 14.0104 1.32292 14.0312 1.28125C14.0521 1.17708 14.0729 1.09375 14.0938 1.03125C14.1146 1.01042 14.125 1 14.125 1C14.125 0.979167 14.125 0.96875 14.125 0.96875C14.1667 0.885417 14.2083 0.8125 14.25 0.75C14.25 0.770833 14.2708 0.75 14.3125 0.6875C14.3542 0.604167 14.4062 0.541667 14.4688 0.5C14.4271 0.520833 14.4479 0.5 14.5312 0.4375C14.6146 0.354167 14.6562 0.3125 14.6562 0.3125C14.6354 0.333333 14.6458 0.322917 14.6875 0.28125C14.6667 0.302083 14.6979 0.291667 14.7812 0.25C14.8854 0.1875 14.9479 0.145833 14.9688 0.125C14.9271 0.145833 14.9583 0.135417 15.0625 0.09375C15.1667 0.0729167 15.2396 0.0520833 15.2812 0.03125C15.2396 0.0520833 15.2708 0.0520833 15.375 0.03125C15.4792 0.0104167 15.5625 0 15.625 0C15.6042 0 15.6458 0 15.75 0C15.8333 0.0208333 15.8958 0.03125 15.9375 0.03125C15.9583 0.03125 16.0104 0.0520833 16.0938 0.09375C16.1771 0.114583 16.2188 0.125 16.2188 0.125C16.2812 0.145833 16.3438 0.177083 16.4062 0.21875C16.4896 0.239583 16.5208 0.25 16.5 0.25C16.5625 0.291667 16.625 0.34375 16.6875 0.40625C16.7708 0.46875 16.7917 0.489583 16.75 0.46875C16.8333 0.53125 16.9062 0.604167 16.9688 0.6875C16.9688 0.708333 16.9688 0.708333 16.9688 0.6875L17 0.75L41.9062 35.6562L66.7812 0.75C66.8021 0.75 66.8125 0.739583 66.8125 0.71875C66.8125 0.71875 66.8125 0.708333 66.8125 0.6875H66.8438C66.9062 0.604167 66.9688 0.53125 67.0312 0.46875C67.0312 0.46875 67.0521 0.447917 67.0938 0.40625C67.1771 0.34375 67.2396 0.291667 67.2812 0.25L67.375 0.21875C67.4583 0.177083 67.5208 0.145833 67.5625 0.125C67.5833 0.125 67.625 0.104167 67.6875 0.0625C67.7708 0.0416667 67.8333 0.03125 67.875 0.03125C67.8958 0.03125 67.9583 0.0208333 68.0625 0C68.1458 0 68.1771 0 68.1562 0H68.1875C68.25 0 68.3229 0.0104167 68.4062 0.03125C68.5312 0.0520833 68.5625 0.0520833 68.5 0.03125C68.5625 0.0520833 68.6458 0.0729167 68.75 0.09375C68.8333 0.135417 68.8542 0.145833 68.8125 0.125C68.8542 0.145833 68.9167 0.1875 69 0.25C69.0833 0.270833 69.1146 0.28125 69.0938 0.28125C69.1354 0.322917 69.1458 0.333333 69.125 0.3125C69.1458 0.3125 69.1979 0.354167 69.2812 0.4375C69.3646 0.520833 69.3854 0.541667 69.3438 0.5C69.3854 0.541667 69.4375 0.604167 69.5 0.6875C69.5417 0.75 69.5521 0.770833 69.5312 0.75C69.5729 0.8125 69.6146 0.885417 69.6562 0.96875C69.6562 0.96875 69.6667 0.979167 69.6875 1C69.6875 1 69.6875 1.01042 69.6875 1.03125C69.7292 1.09375 69.7604 1.17708 69.7812 1.28125C69.7812 1.32292 69.7812 1.33333 69.7812 1.3125C69.8229 1.45833 69.8333 1.59375 69.8125 1.71875V60.6875H80.3125V1.65625C80.3125 1.19792 80.4792 0.802083 80.8125 0.46875ZM92.2188 51.1562C91.1354 52.2396 90.5938 53.5417 90.5938 55.0625C90.5938 56.5833 91.1354 57.8854 92.2188 58.9688C93.3021 60.0521 94.6042 60.5938 96.125 60.5938C97.6458 60.5938 98.9479 60.0521 100.031 58.9688C101.115 57.8854 101.656 56.5833 101.656 55.0625C101.656 53.5417 101.115 52.2396 100.031 51.1562C98.9479 50.0729 97.6458 49.5312 96.125 49.5312C94.6042 49.5312 93.3021 50.0729 92.2188 51.1562ZM89.75 61.4375C87.9792 59.6875 87.0938 57.5625 87.0938 55.0625C87.0938 52.5625 87.9792 50.4375 89.75 48.6875C91.5 46.9167 93.625 46.0312 96.125 46.0312C98.625 46.0312 100.75 46.9167 102.5 48.6875C104.271 50.4375 105.156 52.5625 105.156 55.0625C105.156 57.5625 104.271 59.6875 102.5 61.4375C100.75 63.2083 98.625 64.0938 96.125 64.0938C93.625 64.0938 91.5 63.2083 89.75 61.4375ZM164.562 0.46875C164.896 0.15625 165.292 0 165.75 0C166.208 0 166.594 0.15625 166.906 0.46875C167.219 0.802083 167.375 1.19792 167.375 1.65625V35.75C167.375 43.5417 164.615 50.1979 159.094 55.7188C153.573 61.2396 146.917 64 139.125 64C131.333 64 124.677 61.2396 119.156 55.7188C113.635 50.1979 110.875 43.5417 110.875 35.75V29.7812C110.875 29.3229 111.031 28.9271 111.344 28.5938C111.677 28.2812 112.073 28.125 112.531 28.125H126.125C126.583 28.125 126.979 28.2812 127.312 28.5938C127.625 28.9271 127.781 29.3229 127.781 29.7812V35.3125C127.781 35.3542 127.771 35.4271 127.75 35.5312C127.771 35.6354 127.781 35.7083 127.781 35.75C127.781 38.875 128.896 41.5417 131.125 43.75C133.333 45.9792 136 47.0938 139.125 47.0938C142.229 47.0938 144.885 46 147.094 43.8125C149.302 41.625 150.427 38.9792 150.469 35.875V1.65625C150.469 1.19792 150.635 0.802083 150.969 0.46875C151.281 0.15625 151.667 0 152.125 0C152.583 0 152.969 0.15625 153.281 0.46875C153.615 0.802083 153.781 1.19792 153.781 1.65625V35.5938C153.781 35.6354 153.781 35.6875 153.781 35.75C153.781 39.7917 152.344 43.2396 149.469 46.0938C146.615 48.9479 143.167 50.375 139.125 50.375C135.083 50.375 131.635 48.9479 128.781 46.0938C125.927 43.2396 124.5 39.7917 124.5 35.75C124.5 35.7083 124.5 35.6354 124.5 35.5312C124.5 35.4062 124.5 35.3333 124.5 35.3125V31.4062H114.188V35.75C114.188 42.625 116.625 48.5 121.5 53.375C126.375 58.25 132.25 60.6875 139.125 60.6875C146.021 60.6875 151.906 58.25 156.781 53.375C161.656 48.5 164.094 42.625 164.094 35.75V1.65625C164.094 1.19792 164.25 0.802083 164.562 0.46875Z" fill="white"/>
</svg>
