<svg width="109" height="45" viewBox="0 0 109 45" fill="#4BAA6C" xmlns="http://www.w3.org/2000/svg">
<path d="M44.848 0.199997H44.656C44.4427 0.199997 44.2293 0.22133 44.016 0.263996C43.5893 0.349331 43.184 0.477332 42.8 0.647999C42.3307 0.861332 41.904 1.13866 41.52 1.48C41.4347 1.56533 41.328 1.65066 41.2 1.736L25.072 16.2L9.2 1.992C8.73067 1.56533 8.32533 1.224 7.984 0.967999C7.13067 0.455997 6.23467 0.199997 5.296 0.199997C5.21067 0.199997 5.12533 0.22133 5.04 0.263996C4.05867 0.306662 3.16267 0.626663 2.352 1.224C1.84 1.65067 1.41333 2.16267 1.072 2.76C0.773333 3.35733 0.602667 4.01866 0.56 4.744C0.56 4.82933 0.56 4.97866 0.56 5.192V15.816C1.072 15.2187 1.66933 14.728 2.352 14.344C3.29067 13.832 4.29333 13.576 5.36 13.576C6.256 13.576 7.10933 13.768 7.92 14.152C8.432 14.3653 8.944 14.6853 9.456 15.112C9.79733 15.368 10.2453 15.7733 10.8 16.328C11.3973 16.84 11.7387 17.1387 11.824 17.224L21.872 26.184C22.2133 26.44 22.5547 26.6533 22.896 26.824C23.5787 27.208 24.304 27.4 25.072 27.4C25.712 27.4 26.3307 27.272 26.928 27.016C27.3547 26.8453 27.76 26.6107 28.144 26.312C28.144 26.2693 28.144 26.248 28.144 26.248C28.1867 26.248 28.2293 26.2267 28.272 26.184L38.576 16.968C38.704 16.84 39.152 16.4133 39.92 15.688C40.7307 14.9627 41.3707 14.472 41.84 14.216C42.736 13.7467 43.7173 13.512 44.784 13.512C45.6373 13.512 46.4693 13.6827 47.28 14.024C48.176 14.408 48.944 14.9627 49.584 15.688V5.32C49.584 5.192 49.584 5.08533 49.584 5C49.584 3.76266 49.1787 2.696 48.368 1.8C47.6427 1.032 46.7893 0.541331 45.808 0.327995C45.4667 0.242663 45.1467 0.199997 44.848 0.199997ZM44.784 14.984C43.504 14.984 42.3947 15.4107 41.456 16.264C40.4747 17.16 39.984 18.2693 39.984 19.592V40.072V40.2C39.984 41.5227 40.432 42.6533 41.328 43.592C42.2667 44.5307 43.4187 45 44.784 45C46.192 45 47.3653 44.488 48.304 43.464C49.1573 42.568 49.584 41.48 49.584 40.2V40.136V19.528C49.5413 18.376 49.1147 17.3733 48.304 16.52C47.3653 15.496 46.192 14.984 44.784 14.984ZM5.36 15.048C4.03733 15.048 2.90667 15.5173 1.968 16.456C1.072 17.3093 0.602667 18.376 0.56 19.656V40.072V40.2C0.56 41.5227 1.008 42.6533 1.904 43.592C2.88533 44.5307 4.03733 45 5.36 45C6.768 45 7.94133 44.488 8.88 43.464C9.73333 42.568 10.16 41.48 10.16 40.2V40.136V19.656C10.1173 18.248 9.54133 17.0747 8.432 16.136C7.536 15.4107 6.512 15.048 5.36 15.048ZM64.285 40.2C64.285 41.2667 63.965 42.2267 63.325 43.08C62.3863 44.36 61.1063 45 59.485 45C57.9917 45 56.7757 44.424 55.837 43.272C55.069 42.4187 54.685 41.3947 54.685 40.2C54.685 39.0907 55.0263 38.1093 55.709 37.256C56.6903 36.0187 57.949 35.4 59.485 35.4C60.637 35.4 61.6397 35.7627 62.493 36.488C63.6877 37.4267 64.285 38.664 64.285 40.2ZM103.547 0.199997H103.419C101.968 0.199997 100.774 0.754664 99.835 1.864C99.067 2.76 98.683 3.784 98.683 4.936V5V20.552C98.683 20.68 98.683 20.8293 98.683 21C98.683 21.128 98.683 21.32 98.683 21.576C98.683 21.7893 98.683 21.96 98.683 22.088C98.683 22.6 98.683 23.0267 98.683 23.368C98.5123 27.0373 97.3177 30.0453 95.099 32.392C93.2217 34.3973 91.0457 35.4 88.571 35.4C86.907 35.4 85.3283 34.888 83.835 33.864C82.3417 32.84 81.1257 31.432 80.187 29.64C79.7177 30.8773 78.9283 31.88 77.819 32.648C76.7523 33.416 75.5577 33.8 74.235 33.8C73.1257 33.8 72.1017 33.5227 71.163 32.968C72.699 36.3387 74.8537 39.0907 77.627 41.224C80.955 43.7413 84.603 45 88.571 45C91.3443 45 93.947 44.4027 96.379 43.208C98.8537 41.9707 101.008 40.264 102.843 38.088C106.214 34.0773 108.027 29.3413 108.283 23.88C108.283 23.3253 108.283 22.6213 108.283 21.768C108.283 21.64 108.283 21.4693 108.283 21.256C108.283 21 108.283 20.808 108.283 20.68V5C108.283 3.76266 107.878 2.696 107.067 1.8C106.128 0.73333 104.955 0.199997 103.547 0.199997ZM74.235 22.664C73.0403 22.664 71.995 23.0693 71.099 23.88C70.2883 24.5627 69.7763 25.416 69.563 26.44C69.4777 26.696 69.435 27.016 69.435 27.4C69.435 27.6133 69.4563 27.848 69.499 28.104C69.5843 28.8293 69.7763 29.448 70.075 29.96C70.459 30.6 70.971 31.1333 71.611 31.56C72.379 32.072 73.2537 32.328 74.235 32.328C75.6857 32.328 76.8803 31.7947 77.819 30.728C78.6297 29.7893 79.035 28.7227 79.035 27.528C79.035 26.1627 78.5443 24.9893 77.563 24.008C76.667 23.112 75.5577 22.664 74.235 22.664Z" fill="#4BAA6C"/>
</svg>
