<svg width="919" height="64" viewBox="0 0 919 64" fill="none" xmlns="http://www.w3.org/2000/svg">
<path d="M66.4688 26.4375C66.4479 26.4792 66.4688 26.4583 66.5312 26.375V6.8125L43.25 39.4688C43.2917 39.3854 43.2708 39.3958 43.1875 39.5C43.1458 39.5833 43.0938 39.6562 43.0312 39.7188C42.9896 39.7396 42.9479 39.7604 42.9062 39.7812C42.8021 39.8854 42.7812 39.9062 42.8438 39.8438C42.8021 39.8854 42.7396 39.9271 42.6562 39.9688C42.5521 40.0312 42.4375 40.0729 42.3125 40.0938C42.2917 40.0938 42.2708 40.1042 42.25 40.125C42.125 40.1458 42.0104 40.1562 41.9062 40.1562C41.8021 40.1562 41.6875 40.1458 41.5625 40.125C41.5417 40.1042 41.5208 40.0938 41.5 40.0938C41.375 40.0729 41.2604 40.0312 41.1562 39.9688C41.1771 39.9896 41.1771 39.9896 41.1562 39.9688C41.0729 39.9271 41 39.8854 40.9375 39.8438C41.0208 39.9062 41 39.8854 40.875 39.7812C40.8542 39.7812 40.8229 39.7604 40.7812 39.7188C40.7188 39.6562 40.6562 39.5833 40.5938 39.5C40.5104 39.3958 40.5 39.3854 40.5625 39.4688L17.2812 6.8125V26.375C17.3646 26.4792 17.3854 26.5 17.3438 26.4375L41.5312 60.0938L66.4688 26.4375ZM80.8125 0.46875C81.125 0.15625 81.5104 0 81.9688 0C82.4271 0 82.8125 0.15625 83.125 0.46875C83.4583 0.802083 83.625 1.19792 83.625 1.65625V62.3438C83.625 62.8021 83.4583 63.1979 83.125 63.5312C82.8125 63.8438 82.4271 64 81.9688 64H68.1562C67.7188 64 67.3333 63.8438 67 63.5312C66.6875 63.1979 66.5312 62.8021 66.5312 62.3438V31.9062L43.2188 63.3438C42.8854 63.7812 42.4479 64 41.9062 64C41.7812 64 41.6458 63.9792 41.5 63.9375C41.3542 63.9792 41.2188 64 41.0938 64C40.3646 64 39.8542 63.6667 39.5625 63L17.2812 32.0312V62.3438C17.2812 62.8021 17.125 63.1979 16.8125 63.5312C16.4792 63.8438 16.0833 64 15.625 64H1.84375C1.38542 64 0.989583 63.8438 0.65625 63.5312C0.34375 63.1979 0.1875 62.8021 0.1875 62.3438V1.65625C0.1875 1.19792 0.34375 0.802083 0.65625 0.46875C0.989583 0.15625 1.38542 0 1.84375 0C2.30208 0 2.6875 0.15625 3 0.46875C3.33333 0.802083 3.5 1.19792 3.5 1.65625V60.6875H13.9688V1.71875C13.9688 1.59375 13.9792 1.45833 14 1.3125C14 1.33333 14.0104 1.32292 14.0312 1.28125C14.0521 1.17708 14.0729 1.09375 14.0938 1.03125C14.1146 1.01042 14.125 1 14.125 1C14.125 0.979167 14.125 0.96875 14.125 0.96875C14.1667 0.885417 14.2083 0.8125 14.25 0.75C14.25 0.770833 14.2708 0.75 14.3125 0.6875C14.3542 0.604167 14.4062 0.541667 14.4688 0.5C14.4271 0.520833 14.4479 0.5 14.5312 0.4375C14.6146 0.354167 14.6562 0.3125 14.6562 0.3125C14.6354 0.333333 14.6458 0.322917 14.6875 0.28125C14.6667 0.302083 14.6979 0.291667 14.7812 0.25C14.8854 0.1875 14.9479 0.145833 14.9688 0.125C14.9271 0.145833 14.9583 0.135417 15.0625 0.09375C15.1667 0.0729167 15.2396 0.0520833 15.2812 0.03125C15.2396 0.0520833 15.2708 0.0520833 15.375 0.03125C15.4792 0.0104167 15.5625 0 15.625 0C15.6042 0 15.6458 0 15.75 0C15.8333 0.0208333 15.8958 0.03125 15.9375 0.03125C15.9583 0.03125 16.0104 0.0520833 16.0938 0.09375C16.1771 0.114583 16.2188 0.125 16.2188 0.125C16.2812 0.145833 16.3438 0.177083 16.4062 0.21875C16.4896 0.239583 16.5208 0.25 16.5 0.25C16.5625 0.291667 16.625 0.34375 16.6875 0.40625C16.7708 0.46875 16.7917 0.489583 16.75 0.46875C16.8333 0.53125 16.9062 0.604167 16.9688 0.6875C16.9688 0.708333 16.9688 0.708333 16.9688 0.6875L17 0.75L41.9062 35.6562L66.7812 0.75C66.8021 0.75 66.8125 0.739583 66.8125 0.71875C66.8125 0.71875 66.8125 0.708333 66.8125 0.6875H66.8438C66.9062 0.604167 66.9688 0.53125 67.0312 0.46875C67.0312 0.46875 67.0521 0.447917 67.0938 0.40625C67.1771 0.34375 67.2396 0.291667 67.2812 0.25L67.375 0.21875C67.4583 0.177083 67.5208 0.145833 67.5625 0.125C67.5833 0.125 67.625 0.104167 67.6875 0.0625C67.7708 0.0416667 67.8333 0.03125 67.875 0.03125C67.8958 0.03125 67.9583 0.0208333 68.0625 0C68.1458 0 68.1771 0 68.1562 0H68.1875C68.25 0 68.3229 0.0104167 68.4062 0.03125C68.5312 0.0520833 68.5625 0.0520833 68.5 0.03125C68.5625 0.0520833 68.6458 0.0729167 68.75 0.09375C68.8333 0.135417 68.8542 0.145833 68.8125 0.125C68.8542 0.145833 68.9167 0.1875 69 0.25C69.0833 0.270833 69.1146 0.28125 69.0938 0.28125C69.1354 0.322917 69.1458 0.333333 69.125 0.3125C69.1458 0.3125 69.1979 0.354167 69.2812 0.4375C69.3646 0.520833 69.3854 0.541667 69.3438 0.5C69.3854 0.541667 69.4375 0.604167 69.5 0.6875C69.5417 0.75 69.5521 0.770833 69.5312 0.75C69.5729 0.8125 69.6146 0.885417 69.6562 0.96875C69.6562 0.96875 69.6667 0.979167 69.6875 1C69.6875 1 69.6875 1.01042 69.6875 1.03125C69.7292 1.09375 69.7604 1.17708 69.7812 1.28125C69.7812 1.32292 69.7812 1.33333 69.7812 1.3125C69.8229 1.45833 69.8333 1.59375 69.8125 1.71875V60.6875H80.3125V1.65625C80.3125 1.19792 80.4792 0.802083 80.8125 0.46875ZM94.9062 64C94.4479 64 94.0521 63.8438 93.7188 63.5312C93.4062 63.1979 93.25 62.8021 93.25 62.3438V1.65625C93.25 1.19792 93.4062 0.802083 93.7188 0.46875C94.0521 0.15625 94.4479 0 94.9062 0C95.3646 0 95.75 0.15625 96.0625 0.46875C96.3958 0.802083 96.5625 1.19792 96.5625 1.65625V60.6875H106.875V1.65625C106.875 1.19792 107.031 0.802083 107.344 0.46875C107.677 0.15625 108.073 0 108.531 0C108.969 0 109.354 0.15625 109.688 0.46875C110 0.802083 110.156 1.19792 110.156 1.65625V62.3438C110.156 62.8021 110 63.1979 109.688 63.5312C109.354 63.8438 108.969 64 108.531 64H94.9062ZM144.219 31.8125L136.062 38.5L158.562 60.6875H172.938L144.219 31.8125ZM133.062 60.6875V41L122.75 49.5V60.6875H133.062ZM122.75 3.3125V29.0312L133.062 20.625V3.3125H122.75ZM177.906 0.25C178.677 0.25 179.198 0.614583 179.469 1.34375C179.719 2.07292 179.552 2.67708 178.969 3.15625L146.781 29.6875L178.062 61.1875C178.583 61.7083 178.698 62.3021 178.406 62.9688C178.135 63.6562 177.625 64 176.875 64H157.875C157.417 64 157.031 63.8438 156.719 63.5312L136.344 43.4375V62.3438C136.344 62.8021 136.188 63.1979 135.875 63.5312C135.542 63.8438 135.156 64 134.719 64H121.094C120.635 64 120.24 63.8438 119.906 63.5312C119.594 63.1979 119.438 62.8021 119.438 62.3438V48.7188C119.438 48.8021 119.438 48.7812 119.438 48.6562C119.438 48.5938 119.448 48.5312 119.469 48.4688C119.469 48.4062 119.479 48.3542 119.5 48.3125C119.5 48.2708 119.51 48.2188 119.531 48.1562C119.552 48.1146 119.573 48.0729 119.594 48.0312C119.615 47.9896 119.646 47.9375 119.688 47.875C119.708 47.8125 119.729 47.7708 119.75 47.75C119.792 47.7083 119.833 47.6667 119.875 47.625C119.917 47.5833 119.958 47.5417 120 47.5C120.062 47.4375 120.073 47.4167 120.031 47.4375L173.312 3.53125H159.25L122.125 33.7812C122.208 33.7188 122.188 33.7292 122.062 33.8125C122.021 33.8542 121.979 33.8854 121.938 33.9062C121.875 33.9479 121.823 33.9792 121.781 34C121.74 34.0208 121.688 34.0417 121.625 34.0625C121.583 34.0833 121.531 34.0938 121.469 34.0938C121.448 34.1146 121.406 34.125 121.344 34.125C121.281 34.1458 121.219 34.1562 121.156 34.1562C121.031 34.1562 121.01 34.1562 121.094 34.1562C121.198 34.1562 121.167 34.1562 121 34.1562C120.958 34.1354 120.906 34.125 120.844 34.125C120.781 34.125 120.729 34.1146 120.688 34.0938C120.646 34.0729 120.594 34.0625 120.531 34.0625C120.469 34.0417 120.417 34.0208 120.375 34C120.333 33.9792 120.292 33.9479 120.25 33.9062C120.188 33.8854 120.135 33.8542 120.094 33.8125C120.073 33.7917 120.042 33.7604 120 33.7188C119.938 33.6771 119.896 33.6354 119.875 33.5938C119.792 33.5104 119.771 33.4896 119.812 33.5312C119.833 33.5729 119.823 33.5625 119.781 33.5C119.74 33.4583 119.708 33.4062 119.688 33.3438C119.646 33.2812 119.615 33.2292 119.594 33.1875C119.573 33.1667 119.552 33.125 119.531 33.0625C119.51 33 119.5 32.9479 119.5 32.9062C119.479 32.8646 119.469 32.8125 119.469 32.75C119.448 32.6875 119.438 32.625 119.438 32.5625C119.438 32.4583 119.438 32.4375 119.438 32.5V1.65625C119.438 1.19792 119.594 0.802083 119.906 0.46875C120.24 0.15625 120.635 0 121.094 0H134.719C135.156 0 135.542 0.15625 135.875 0.46875C136.188 0.802083 136.344 1.19792 136.344 1.65625V17.9375L157.594 0.625C157.906 0.375 158.26 0.25 158.656 0.25H177.906ZM247.375 60.6875L243.688 51.5H232.531L236.219 60.6875H247.375ZM213.906 34.125H222.031L217.969 24L213.906 34.125ZM251.344 61.75C251.573 62.2917 251.521 62.8021 251.188 63.2812C250.854 63.7604 250.396 64 249.812 64H235.125C234.375 64 233.865 63.6562 233.594 62.9688L229 51.5H206.938L202.344 62.9688C202.073 63.6562 201.562 64 200.812 64H186.094C185.51 64 185.062 63.7604 184.75 63.2812C184.417 62.8021 184.354 62.2917 184.562 61.75L208.938 1.03125C209.208 0.34375 209.719 0 210.469 0H225.469C226.219 0 226.729 0.34375 227 1.03125L240.688 35.1562C240.688 35.1354 240.698 35.1771 240.719 35.2812C240.76 35.3854 240.781 35.4479 240.781 35.4688C240.781 35.5104 240.792 35.5833 240.812 35.6875C240.812 35.7917 240.812 35.8229 240.812 35.7812V35.8125C240.812 35.8542 240.802 35.9271 240.781 36.0312C240.76 36.1354 240.76 36.1667 240.781 36.125C240.781 36.125 240.76 36.1667 240.719 36.25C240.635 36.5417 240.5 36.7812 240.312 36.9688C240.292 36.9688 240.281 36.9792 240.281 37C240.198 37.0625 240.125 37.1146 240.062 37.1562C240.042 37.1771 240.031 37.1875 240.031 37.1875C239.948 37.25 239.865 37.2917 239.781 37.3125C239.865 37.2708 239.844 37.2812 239.719 37.3438C239.615 37.3646 239.531 37.3854 239.469 37.4062C239.469 37.4062 239.417 37.4062 239.312 37.4062C239.208 37.4271 239.156 37.4375 239.156 37.4375H211.469C211.365 37.4375 211.26 37.4271 211.156 37.4062C211.135 37.4062 211.083 37.3958 211 37.375L210.844 37.3125C210.802 37.2917 210.729 37.2604 210.625 37.2188C210.542 37.1562 210.51 37.1354 210.531 37.1562C210.531 37.1562 210.49 37.125 210.406 37.0625L210.281 36.9688C210.323 36.9896 210.302 36.9583 210.219 36.875C210.156 36.7917 210.115 36.7396 210.094 36.7188C210.073 36.6979 210.042 36.6354 210 36.5312C209.958 36.4479 209.938 36.4167 209.938 36.4375C209.938 36.4375 209.927 36.3958 209.906 36.3125C209.865 36.2083 209.844 36.1458 209.844 36.125C209.844 36.1458 209.844 36.1146 209.844 36.0312C209.823 35.9271 209.812 35.8542 209.812 35.8125V35.7812C209.812 35.8229 209.812 35.7917 209.812 35.6875C209.833 35.5833 209.844 35.5104 209.844 35.4688C209.844 35.4479 209.865 35.3854 209.906 35.2812C209.927 35.1771 209.938 35.1354 209.938 35.1562L216.438 18.9688C216.708 18.2812 217.219 17.9375 217.969 17.9375C218.698 17.9375 219.208 18.2812 219.5 18.9688L225.562 34.125H236.719L224.344 3.3125H211.562L188.562 60.6875H199.688L204.312 49.2188C204.646 48.3854 205.25 48.0521 206.125 48.2188H244.812C245.479 48.1979 245.958 48.4896 246.25 49.0938L246.312 49.2188C246.312 49.2188 246.323 49.2292 246.344 49.25L251.344 61.75ZM269.625 23.5625V15.2188C269.625 14.7604 269.792 14.375 270.125 14.0625C270.438 13.7292 270.823 13.5625 271.281 13.5625H304.906V3.3125H259.375V23.5625H269.625ZM271.281 50.4375C270.823 50.4375 270.438 50.2708 270.125 49.9375C269.792 49.625 269.625 49.2396 269.625 48.7812V40.4375H259.375V60.6875H304.906V50.4375H271.281ZM272.938 16.875V23.5625H293.094C293.552 23.5625 293.948 23.7188 294.281 24.0312C294.594 24.3646 294.75 24.7604 294.75 25.2188V38.7812C294.75 39.2396 294.594 39.6354 294.281 39.9688C293.948 40.2812 293.552 40.4375 293.094 40.4375H272.938V47.125H306.531C306.99 47.125 307.385 47.2812 307.719 47.5938C308.031 47.9271 308.188 48.3229 308.188 48.7812V62.3438C308.188 62.8021 308.031 63.1979 307.719 63.5312C307.385 63.8438 306.99 64 306.531 64H257.719C257.26 64 256.865 63.8438 256.531 63.5312C256.219 63.1979 256.062 62.8021 256.062 62.3438V38.7812C256.062 38.3229 256.219 37.9375 256.531 37.625C256.865 37.2917 257.26 37.125 257.719 37.125H291.438V26.875H257.719C257.26 26.875 256.865 26.7083 256.531 26.375C256.219 26.0625 256.062 25.6771 256.062 25.2188V1.65625C256.062 1.19792 256.219 0.802083 256.531 0.46875C256.865 0.15625 257.26 0 257.719 0H306.531C306.99 0 307.385 0.15625 307.719 0.46875C308.031 0.802083 308.188 1.19792 308.188 1.65625V15.2188C308.188 15.6771 308.031 16.0729 307.719 16.4062C307.385 16.7188 306.99 16.875 306.531 16.875H272.938ZM364.438 50.375H334.531V60.6875H364.438V50.375ZM366.062 47.0938C366.521 47.0938 366.917 47.25 367.25 47.5625C367.562 47.8958 367.719 48.2812 367.719 48.7188V62.3438C367.719 62.8021 367.562 63.1979 367.25 63.5312C366.917 63.8438 366.521 64 366.062 64H332.906C332.448 64 332.052 63.8438 331.719 63.5312C331.406 63.1979 331.25 62.8021 331.25 62.3438V3.3125H320.938V62.3438C320.938 62.8021 320.771 63.1979 320.438 63.5312C320.125 63.8438 319.74 64 319.281 64C318.823 64 318.427 63.8438 318.094 63.5312C317.781 63.1979 317.625 62.8021 317.625 62.3438V1.65625C317.625 1.19792 317.781 0.802083 318.094 0.46875C318.427 0.15625 318.823 0 319.281 0H332.906C333.344 0 333.729 0.15625 334.062 0.46875C334.375 0.802083 334.531 1.19792 334.531 1.65625V47.0938H366.062ZM441.688 0.46875C442.021 0.15625 442.417 0 442.875 0C443.333 0 443.719 0.15625 444.031 0.46875C444.344 0.802083 444.5 1.19792 444.5 1.65625V35.75C444.5 43.5417 441.74 50.1979 436.219 55.7188C430.698 61.2396 424.042 64 416.25 64C408.458 64 401.802 61.2396 396.281 55.7188C390.76 50.1979 388 43.5417 388 35.75V29.7812C388 29.3229 388.156 28.9271 388.469 28.5938C388.802 28.2812 389.198 28.125 389.656 28.125H403.25C403.708 28.125 404.104 28.2812 404.438 28.5938C404.75 28.9271 404.906 29.3229 404.906 29.7812V35.3125C404.906 35.3542 404.896 35.4271 404.875 35.5312C404.896 35.6354 404.906 35.7083 404.906 35.75C404.906 38.875 406.021 41.5417 408.25 43.75C410.458 45.9792 413.125 47.0938 416.25 47.0938C419.354 47.0938 422.01 46 424.219 43.8125C426.427 41.625 427.552 38.9792 427.594 35.875V1.65625C427.594 1.19792 427.76 0.802083 428.094 0.46875C428.406 0.15625 428.792 0 429.25 0C429.708 0 430.094 0.15625 430.406 0.46875C430.74 0.802083 430.906 1.19792 430.906 1.65625V35.5938C430.906 35.6354 430.906 35.6875 430.906 35.75C430.906 39.7917 429.469 43.2396 426.594 46.0938C423.74 48.9479 420.292 50.375 416.25 50.375C412.208 50.375 408.76 48.9479 405.906 46.0938C403.052 43.2396 401.625 39.7917 401.625 35.75C401.625 35.7083 401.625 35.6354 401.625 35.5312C401.625 35.4062 401.625 35.3333 401.625 35.3125V31.4062H391.312V35.75C391.312 42.625 393.75 48.5 398.625 53.375C403.5 58.25 409.375 60.6875 416.25 60.6875C423.146 60.6875 429.031 58.25 433.906 53.375C438.781 48.5 441.219 42.625 441.219 35.75V1.65625C441.219 1.19792 441.375 0.802083 441.688 0.46875ZM512 60.6875L508.312 51.5H497.156L500.844 60.6875H512ZM478.531 34.125H486.656L482.594 24L478.531 34.125ZM515.969 61.75C516.198 62.2917 516.146 62.8021 515.812 63.2812C515.479 63.7604 515.021 64 514.438 64H499.75C499 64 498.49 63.6562 498.219 62.9688L493.625 51.5H471.562L466.969 62.9688C466.698 63.6562 466.188 64 465.438 64H450.719C450.135 64 449.688 63.7604 449.375 63.2812C449.042 62.8021 448.979 62.2917 449.188 61.75L473.562 1.03125C473.833 0.34375 474.344 0 475.094 0H490.094C490.844 0 491.354 0.34375 491.625 1.03125L505.312 35.1562C505.312 35.1354 505.323 35.1771 505.344 35.2812C505.385 35.3854 505.406 35.4479 505.406 35.4688C505.406 35.5104 505.417 35.5833 505.438 35.6875C505.438 35.7917 505.438 35.8229 505.438 35.7812V35.8125C505.438 35.8542 505.427 35.9271 505.406 36.0312C505.385 36.1354 505.385 36.1667 505.406 36.125C505.406 36.125 505.385 36.1667 505.344 36.25C505.26 36.5417 505.125 36.7812 504.938 36.9688C504.917 36.9688 504.906 36.9792 504.906 37C504.823 37.0625 504.75 37.1146 504.688 37.1562C504.667 37.1771 504.656 37.1875 504.656 37.1875C504.573 37.25 504.49 37.2917 504.406 37.3125C504.49 37.2708 504.469 37.2812 504.344 37.3438C504.24 37.3646 504.156 37.3854 504.094 37.4062C504.094 37.4062 504.042 37.4062 503.938 37.4062C503.833 37.4271 503.781 37.4375 503.781 37.4375H476.094C475.99 37.4375 475.885 37.4271 475.781 37.4062C475.76 37.4062 475.708 37.3958 475.625 37.375L475.469 37.3125C475.427 37.2917 475.354 37.2604 475.25 37.2188C475.167 37.1562 475.135 37.1354 475.156 37.1562C475.156 37.1562 475.115 37.125 475.031 37.0625L474.906 36.9688C474.948 36.9896 474.927 36.9583 474.844 36.875C474.781 36.7917 474.74 36.7396 474.719 36.7188C474.698 36.6979 474.667 36.6354 474.625 36.5312C474.583 36.4479 474.562 36.4167 474.562 36.4375C474.562 36.4375 474.552 36.3958 474.531 36.3125C474.49 36.2083 474.469 36.1458 474.469 36.125C474.469 36.1458 474.469 36.1146 474.469 36.0312C474.448 35.9271 474.438 35.8542 474.438 35.8125V35.7812C474.438 35.8229 474.438 35.7917 474.438 35.6875C474.458 35.5833 474.469 35.5104 474.469 35.4688C474.469 35.4479 474.49 35.3854 474.531 35.2812C474.552 35.1771 474.562 35.1354 474.562 35.1562L481.062 18.9688C481.333 18.2812 481.844 17.9375 482.594 17.9375C483.323 17.9375 483.833 18.2812 484.125 18.9688L490.188 34.125H501.344L488.969 3.3125H476.188L453.188 60.6875H464.312L468.938 49.2188C469.271 48.3854 469.875 48.0521 470.75 48.2188H509.438C510.104 48.1979 510.583 48.4896 510.875 49.0938L510.938 49.2188C510.938 49.2188 510.948 49.2292 510.969 49.25L515.969 61.75ZM534.25 40.4375H524V60.6875H534.25V40.4375ZM537.562 23.5625H552.438L552.594 23.5312C553.51 23.5312 554.292 23.2083 554.938 22.5625C555.583 21.9167 555.906 21.1354 555.906 20.2188C555.906 19.3021 555.583 18.5208 554.938 17.875C554.292 17.2292 553.51 16.9062 552.594 16.9062L537.562 16.875V23.5625ZM566.906 5.90625C570.844 9.86458 572.812 14.625 572.812 20.1875C572.812 25.5417 570.969 30.1667 567.281 34.0625C563.594 37.9375 559.094 40.0312 553.781 40.3438C553.594 40.4062 553.406 40.4375 553.219 40.4375H537.562V62.3438C537.562 62.8021 537.396 63.1979 537.062 63.5312C536.75 63.8438 536.365 64 535.906 64H522.344C521.885 64 521.49 63.8438 521.156 63.5312C520.844 63.1979 520.688 62.8021 520.688 62.3438V38.7812C520.688 38.3229 520.844 37.9375 521.156 37.625C521.49 37.2917 521.885 37.125 522.344 37.125H552.188C552.354 37.0833 552.5 37.0625 552.625 37.0625C557.292 37.0625 561.271 35.4167 564.562 32.125C567.875 28.8125 569.531 24.8333 569.531 20.1875C569.531 15.5208 567.875 11.5417 564.562 8.25C561.271 4.95833 557.292 3.3125 552.625 3.3125H524V23.5625H534.25V15.2188C534.25 14.7604 534.417 14.375 534.75 14.0625C535.062 13.7292 535.448 13.5625 535.906 13.5625L552.594 13.5938C554.427 13.5938 555.99 14.2396 557.281 15.5312C558.573 16.8438 559.219 18.4062 559.219 20.2188C559.219 21.9896 558.604 23.5104 557.375 24.7812C556.167 26.0521 554.688 26.7396 552.938 26.8438C552.812 26.8646 552.698 26.875 552.594 26.875H522.344C521.885 26.875 521.49 26.7083 521.156 26.375C520.844 26.0625 520.688 25.6771 520.688 25.2188V1.65625C520.688 1.19792 520.844 0.802083 521.156 0.46875C521.49 0.15625 521.885 0 522.344 0H552.625C558.188 0 562.948 1.96875 566.906 5.90625ZM630.562 60.6875L626.875 51.5H615.719L619.406 60.6875H630.562ZM597.094 34.125H605.219L601.156 24L597.094 34.125ZM634.531 61.75C634.76 62.2917 634.708 62.8021 634.375 63.2812C634.042 63.7604 633.583 64 633 64H618.312C617.562 64 617.052 63.6562 616.781 62.9688L612.188 51.5H590.125L585.531 62.9688C585.26 63.6562 584.75 64 584 64H569.281C568.698 64 568.25 63.7604 567.938 63.2812C567.604 62.8021 567.542 62.2917 567.75 61.75L592.125 1.03125C592.396 0.34375 592.906 0 593.656 0H608.656C609.406 0 609.917 0.34375 610.188 1.03125L623.875 35.1562C623.875 35.1354 623.885 35.1771 623.906 35.2812C623.948 35.3854 623.969 35.4479 623.969 35.4688C623.969 35.5104 623.979 35.5833 624 35.6875C624 35.7917 624 35.8229 624 35.7812V35.8125C624 35.8542 623.99 35.9271 623.969 36.0312C623.948 36.1354 623.948 36.1667 623.969 36.125C623.969 36.125 623.948 36.1667 623.906 36.25C623.823 36.5417 623.688 36.7812 623.5 36.9688C623.479 36.9688 623.469 36.9792 623.469 37C623.385 37.0625 623.312 37.1146 623.25 37.1562C623.229 37.1771 623.219 37.1875 623.219 37.1875C623.135 37.25 623.052 37.2917 622.969 37.3125C623.052 37.2708 623.031 37.2812 622.906 37.3438C622.802 37.3646 622.719 37.3854 622.656 37.4062C622.656 37.4062 622.604 37.4062 622.5 37.4062C622.396 37.4271 622.344 37.4375 622.344 37.4375H594.656C594.552 37.4375 594.448 37.4271 594.344 37.4062C594.323 37.4062 594.271 37.3958 594.188 37.375L594.031 37.3125C593.99 37.2917 593.917 37.2604 593.812 37.2188C593.729 37.1562 593.698 37.1354 593.719 37.1562C593.719 37.1562 593.677 37.125 593.594 37.0625L593.469 36.9688C593.51 36.9896 593.49 36.9583 593.406 36.875C593.344 36.7917 593.302 36.7396 593.281 36.7188C593.26 36.6979 593.229 36.6354 593.188 36.5312C593.146 36.4479 593.125 36.4167 593.125 36.4375C593.125 36.4375 593.115 36.3958 593.094 36.3125C593.052 36.2083 593.031 36.1458 593.031 36.125C593.031 36.1458 593.031 36.1146 593.031 36.0312C593.01 35.9271 593 35.8542 593 35.8125V35.7812C593 35.8229 593 35.7917 593 35.6875C593.021 35.5833 593.031 35.5104 593.031 35.4688C593.031 35.4479 593.052 35.3854 593.094 35.2812C593.115 35.1771 593.125 35.1354 593.125 35.1562L599.625 18.9688C599.896 18.2812 600.406 17.9375 601.156 17.9375C601.885 17.9375 602.396 18.2812 602.688 18.9688L608.75 34.125H619.906L607.531 3.3125H594.75L571.75 60.6875H582.875L587.5 49.2188C587.833 48.3854 588.438 48.0521 589.312 48.2188H628C628.667 48.1979 629.146 48.4896 629.438 49.0938L629.5 49.2188C629.5 49.2188 629.51 49.2292 629.531 49.25L634.531 61.75ZM686.25 60.4375L671.156 40.75C671.073 40.6667 671.01 40.5625 670.969 40.4375H658.125L673.312 60.4375H686.25ZM642.562 60.6875H652.812V40.4375H642.562V60.6875ZM656.125 23.5625H671L671.156 23.5312C672.073 23.5312 672.854 23.2083 673.5 22.5625C674.146 21.9167 674.469 21.1354 674.469 20.2188C674.469 19.3021 674.146 18.5208 673.5 17.875C672.854 17.2292 672.073 16.9062 671.156 16.9062L656.125 16.875V23.5625ZM690.906 61.0938C691.323 61.6354 691.375 62.2188 691.062 62.8438C690.771 63.4479 690.281 63.75 689.594 63.75H672.469C671.927 63.75 671.49 63.5312 671.156 63.0938L656.125 43.2812V62.3438C656.125 62.8021 655.958 63.1979 655.625 63.5312C655.312 63.8438 654.927 64 654.469 64H640.906C640.448 64 640.052 63.8438 639.719 63.5312C639.406 63.1979 639.25 62.8021 639.25 62.3438V38.7812C639.25 38.3229 639.406 37.9375 639.719 37.625C640.052 37.2917 640.448 37.125 640.906 37.125H670.75C670.917 37.0833 671.062 37.0625 671.188 37.0625C675.854 37.0625 679.833 35.4167 683.125 32.125C686.438 28.8125 688.094 24.8333 688.094 20.1875C688.094 15.5208 686.438 11.5417 683.125 8.25C679.833 4.95833 675.854 3.3125 671.188 3.3125C671.208 3.3125 671.208 3.3125 671.188 3.3125C671.167 3.3125 671.156 3.3125 671.156 3.3125H642.562V23.5625H652.812V15.2188C652.812 14.7604 652.979 14.375 653.312 14.0625C653.625 13.7292 654.01 13.5625 654.469 13.5625L671.156 13.5938C672.99 13.5938 674.552 14.2396 675.844 15.5312C677.135 16.8438 677.781 18.4062 677.781 20.2188C677.781 21.9896 677.167 23.5104 675.938 24.7812C674.729 26.0521 673.25 26.7396 671.5 26.8438C671.375 26.8646 671.26 26.875 671.156 26.875H640.906C640.448 26.875 640.052 26.7083 639.719 26.375C639.406 26.0625 639.25 25.6771 639.25 25.2188V1.65625C639.25 1.19792 639.406 0.802083 639.719 0.46875C640.052 0.15625 640.448 0 640.906 0H671.156C671.156 0 671.167 0 671.188 0C671.208 0 671.208 0 671.188 0C676.75 0 681.51 1.96875 685.469 5.90625C689.406 9.86458 691.375 14.625 691.375 20.1875C691.375 25.1042 689.792 29.4375 686.625 33.1875C683.479 36.9167 679.531 39.2083 674.781 40.0625L690.906 61.0938ZM702.531 64C702.073 64 701.677 63.8438 701.344 63.5312C701.031 63.1979 700.875 62.8021 700.875 62.3438V1.65625C700.875 1.19792 701.031 0.802083 701.344 0.46875C701.677 0.15625 702.073 0 702.531 0C702.99 0 703.375 0.15625 703.688 0.46875C704.021 0.802083 704.188 1.19792 704.188 1.65625V60.6875H714.5V1.65625C714.5 1.19792 714.656 0.802083 714.969 0.46875C715.302 0.15625 715.698 0 716.156 0C716.594 0 716.979 0.15625 717.312 0.46875C717.625 0.802083 717.781 1.19792 717.781 1.65625V62.3438C717.781 62.8021 717.625 63.1979 717.312 63.5312C716.979 63.8438 716.594 64 716.156 64H702.531ZM743.969 47.0938H755.062C759.208 47.0938 762.76 45.6146 765.719 42.6562C768.656 39.7188 770.125 36.1667 770.125 32C770.125 27.8333 768.656 24.2812 765.719 21.3438C762.76 18.3854 759.208 16.9062 755.062 16.9062H743.969V47.0938ZM755.062 0C763.875 0 771.417 3.125 777.688 9.375C783.938 15.6458 787.062 23.1875 787.062 32C787.062 40.8125 783.938 48.3542 777.688 54.625C771.417 60.875 763.875 64 755.062 64H728.719C728.26 64 727.865 63.8438 727.531 63.5312C727.219 63.1979 727.062 62.8021 727.062 62.3438C727.062 61.8854 727.219 61.5 727.531 61.1875C727.865 60.8542 728.26 60.6875 728.719 60.6875H755.062C762.979 60.6875 769.74 57.8854 775.344 52.2812C780.948 46.6771 783.75 39.9167 783.75 32C783.75 24.0833 780.948 17.3229 775.344 11.7188C769.74 6.11458 762.979 3.3125 755.062 3.3125H730.375V47.0938H740.688V15.2812C740.688 14.8229 740.844 14.4271 741.156 14.0938C741.49 13.7812 741.885 13.625 742.344 13.625H755.062C760.125 13.625 764.448 15.4167 768.031 19C771.635 22.6042 773.438 26.9375 773.438 32C773.438 37.0625 771.635 41.3958 768.031 45C764.448 48.5833 760.125 50.375 755.062 50.375H728.719C728.26 50.375 727.865 50.2188 727.531 49.9062C727.219 49.5729 727.062 49.1771 727.062 48.7188V1.96875C727.062 1.96875 727.073 1.91667 727.094 1.8125C727.073 1.70833 727.062 1.65625 727.062 1.65625C727.062 1.19792 727.219 0.802083 727.531 0.46875C727.865 0.15625 728.26 0 728.719 0H755.062ZM853.719 50.1875H822.312L814.844 60.5H853.719V50.1875ZM855.375 46.875C855.833 46.875 856.219 47.0312 856.531 47.3438C856.865 47.6771 857.031 48.0729 857.031 48.5312V62.1562C857.031 62.6146 856.865 63 856.531 63.3125C856.219 63.6458 855.833 63.8125 855.375 63.8125H811.625C811.521 63.8125 811.417 63.8021 811.312 63.7812C811.312 63.7812 811.281 63.7708 811.219 63.75C811.156 63.7292 811.094 63.7083 811.031 63.6875C810.99 63.6667 810.958 63.6562 810.938 63.6562C810.875 63.6354 810.812 63.6042 810.75 63.5625C810.688 63.5208 810.656 63.5 810.656 63.5C810.677 63.5208 810.646 63.4896 810.562 63.4062C810.5 63.3646 810.458 63.3229 810.438 63.2812C810.417 63.2812 810.375 63.25 810.312 63.1875C810.271 63.125 810.24 63.0729 810.219 63.0312C810.219 63.0104 810.198 62.9688 810.156 62.9062C810.115 62.8229 810.094 62.7708 810.094 62.75C810.073 62.7292 810.052 62.6771 810.031 62.5938C810.01 62.5312 810 62.4792 810 62.4375C809.979 62.4167 809.969 62.3646 809.969 62.2812C809.969 62.1771 809.969 62.1354 809.969 62.1562C809.969 62.1771 809.969 62.1667 809.969 62.125C809.969 62.0833 809.979 62.0208 810 61.9375V61.8125C810 61.7917 810.021 61.7396 810.062 61.6562L810.094 61.5C810.094 61.5 810.115 61.4583 810.156 61.375C810.198 61.2917 810.229 61.2396 810.25 61.2188C810.292 61.1771 810.302 61.1667 810.281 61.1875L852.156 3.3125H794.75V13.625H827.781C827.823 13.625 827.896 13.6354 828 13.6562C828.104 13.6771 828.146 13.6771 828.125 13.6562C828.125 13.6562 828.177 13.6771 828.281 13.7188C828.365 13.7396 828.417 13.7604 828.438 13.7812C828.417 13.7604 828.458 13.7812 828.562 13.8438C828.646 13.8854 828.698 13.9167 828.719 13.9375C828.76 13.9583 828.771 13.9583 828.75 13.9375C828.708 13.9167 828.729 13.9479 828.812 14.0312C828.896 14.0729 828.948 14.1042 828.969 14.125C828.99 14.1458 829.021 14.1875 829.062 14.25C829.104 14.3125 829.135 14.3542 829.156 14.375C829.177 14.4167 829.208 14.4688 829.25 14.5312C829.271 14.6146 829.292 14.6667 829.312 14.6875C829.312 14.7083 829.323 14.7604 829.344 14.8438C829.365 14.9062 829.385 14.9479 829.406 14.9688C829.406 15.0104 829.406 15.0729 829.406 15.1562C829.427 15.2812 829.438 15.3229 829.438 15.2812L829.406 15.3125C829.406 15.3542 829.406 15.4167 829.406 15.5L829.375 15.625C829.375 15.6458 829.365 15.6979 829.344 15.7812C829.302 15.8854 829.281 15.9375 829.281 15.9375C829.281 15.9167 829.26 15.9583 829.219 16.0625C829.177 16.125 829.146 16.1771 829.125 16.2188C829.104 16.2396 829.104 16.25 829.125 16.25L795.281 63.3125C794.948 63.7708 794.5 64 793.938 64C793.583 64 793.271 63.8958 793 63.6875C792.625 63.4167 792.396 63.0625 792.312 62.625C792.25 62.1667 792.344 61.75 792.594 61.375L824.562 16.9375H793.094C792.635 16.9375 792.24 16.7708 791.906 16.4375C791.594 16.125 791.438 15.7396 791.438 15.2812V1.65625C791.438 1.19792 791.594 0.802083 791.906 0.46875C792.24 0.15625 792.635 0 793.094 0H855.375C855.354 0 855.365 0 855.406 0C855.448 0 855.51 0.0104167 855.594 0.03125C855.677 0.03125 855.719 0.03125 855.719 0.03125C855.74 0.03125 855.792 0.0520833 855.875 0.09375C855.979 0.114583 856.031 0.125 856.031 0.125C856.031 0.125 856.073 0.145833 856.156 0.1875C856.24 0.229167 856.292 0.270833 856.312 0.3125C856.312 0.3125 856.323 0.3125 856.344 0.3125C856.323 0.291667 856.354 0.3125 856.438 0.375C856.5 0.4375 856.542 0.479167 856.562 0.5C856.583 0.520833 856.615 0.5625 856.656 0.625C856.719 0.6875 856.75 0.729167 856.75 0.75C856.771 0.770833 856.802 0.822917 856.844 0.90625C856.885 0.96875 856.906 1.02083 856.906 1.0625C856.927 1.08333 856.948 1.125 856.969 1.1875C856.99 1.27083 857 1.32292 857 1.34375C857 1.38542 857 1.44792 857 1.53125C857.021 1.65625 857.031 1.69792 857.031 1.65625V1.6875C857.031 1.72917 857.021 1.79167 857 1.875V2C856.979 2.02083 856.958 2.07292 856.938 2.15625C856.917 2.26042 856.896 2.3125 856.875 2.3125C856.896 2.29167 856.875 2.33333 856.812 2.4375C856.771 2.52083 856.74 2.57292 856.719 2.59375C856.656 2.67708 856.656 2.6875 856.719 2.625L824.688 46.875H855.375ZM880.375 23.5625V15.2188C880.375 14.7604 880.542 14.375 880.875 14.0625C881.188 13.7292 881.573 13.5625 882.031 13.5625H915.656V3.3125H870.125V23.5625H880.375ZM882.031 50.4375C881.573 50.4375 881.188 50.2708 880.875 49.9375C880.542 49.625 880.375 49.2396 880.375 48.7812V40.4375H870.125V60.6875H915.656V50.4375H882.031ZM883.688 16.875V23.5625H903.844C904.302 23.5625 904.698 23.7188 905.031 24.0312C905.344 24.3646 905.5 24.7604 905.5 25.2188V38.7812C905.5 39.2396 905.344 39.6354 905.031 39.9688C904.698 40.2812 904.302 40.4375 903.844 40.4375H883.688V47.125H917.281C917.74 47.125 918.135 47.2812 918.469 47.5938C918.781 47.9271 918.938 48.3229 918.938 48.7812V62.3438C918.938 62.8021 918.781 63.1979 918.469 63.5312C918.135 63.8438 917.74 64 917.281 64H868.469C868.01 64 867.615 63.8438 867.281 63.5312C866.969 63.1979 866.812 62.8021 866.812 62.3438V38.7812C866.812 38.3229 866.969 37.9375 867.281 37.625C867.615 37.2917 868.01 37.125 868.469 37.125H902.188V26.875H868.469C868.01 26.875 867.615 26.7083 867.281 26.375C866.969 26.0625 866.812 25.6771 866.812 25.2188V1.65625C866.812 1.19792 866.969 0.802083 867.281 0.46875C867.615 0.15625 868.01 0 868.469 0H917.281C917.74 0 918.135 0.15625 918.469 0.46875C918.781 0.802083 918.938 1.19792 918.938 1.65625V15.2188C918.938 15.6771 918.781 16.0729 918.469 16.4062C918.135 16.7188 917.74 16.875 917.281 16.875H883.688Z" fill="white"/>
</svg>
