<svg width="644" height="45" viewBox="0 0 644 45" fill="none" xmlns="http://www.w3.org/2000/svg">
<path d="M44.848 0.199997H44.656C44.4427 0.199997 44.2293 0.22133 44.016 0.263996C43.5893 0.349331 43.184 0.477332 42.8 0.647999C42.3307 0.861332 41.904 1.13866 41.52 1.48C41.4347 1.56533 41.328 1.65066 41.2 1.736L25.072 16.2L9.2 1.992C8.73067 1.56533 8.32533 1.224 7.984 0.967999C7.13067 0.455997 6.23467 0.199997 5.296 0.199997C5.21067 0.199997 5.12533 0.22133 5.04 0.263996C4.05867 0.306662 3.16267 0.626663 2.352 1.224C1.84 1.65067 1.41333 2.16267 1.072 2.76C0.773333 3.35733 0.602667 4.01866 0.56 4.744C0.56 4.82933 0.56 4.97866 0.56 5.192V15.816C1.072 15.2187 1.66933 14.728 2.352 14.344C3.29067 13.832 4.29333 13.576 5.36 13.576C6.256 13.576 7.10933 13.768 7.92 14.152C8.432 14.3653 8.944 14.6853 9.456 15.112C9.79733 15.368 10.2453 15.7733 10.8 16.328C11.3973 16.84 11.7387 17.1387 11.824 17.224L21.872 26.184C22.2133 26.44 22.5547 26.6533 22.896 26.824C23.5787 27.208 24.304 27.4 25.072 27.4C25.712 27.4 26.3307 27.272 26.928 27.016C27.3547 26.8453 27.76 26.6107 28.144 26.312C28.144 26.2693 28.144 26.248 28.144 26.248C28.1867 26.248 28.2293 26.2267 28.272 26.184L38.576 16.968C38.704 16.84 39.152 16.4133 39.92 15.688C40.7307 14.9627 41.3707 14.472 41.84 14.216C42.736 13.7467 43.7173 13.512 44.784 13.512C45.6373 13.512 46.4693 13.6827 47.28 14.024C48.176 14.408 48.944 14.9627 49.584 15.688V5.32C49.584 5.192 49.584 5.08533 49.584 5C49.584 3.76266 49.1787 2.696 48.368 1.8C47.6427 1.032 46.7893 0.541331 45.808 0.327995C45.4667 0.242663 45.1467 0.199997 44.848 0.199997ZM44.784 14.984C43.504 14.984 42.3947 15.4107 41.456 16.264C40.4747 17.16 39.984 18.2693 39.984 19.592V40.072V40.2C39.984 41.5227 40.432 42.6533 41.328 43.592C42.2667 44.5307 43.4187 45 44.784 45C46.192 45 47.3653 44.488 48.304 43.464C49.1573 42.568 49.584 41.48 49.584 40.2V40.136V19.528C49.5413 18.376 49.1147 17.3733 48.304 16.52C47.3653 15.496 46.192 14.984 44.784 14.984ZM5.36 15.048C4.03733 15.048 2.90667 15.5173 1.968 16.456C1.072 17.3093 0.602667 18.376 0.56 19.656V40.072V40.2C0.56 41.5227 1.008 42.6533 1.904 43.592C2.88533 44.5307 4.03733 45 5.36 45C6.768 45 7.94133 44.488 8.88 43.464C9.73333 42.568 10.16 41.48 10.16 40.2V40.136V19.656C10.1173 18.248 9.54133 17.0747 8.432 16.136C7.536 15.4107 6.512 15.048 5.36 15.048ZM59.549 0.199997H59.421C57.9703 0.199997 56.7757 0.754664 55.837 1.864C55.069 2.76 54.685 3.784 54.685 4.936V5V18.504C55.965 17.0533 57.565 16.328 59.485 16.328C61.4477 16.328 63.0477 17.0747 64.285 18.568V5C64.285 3.76266 63.8797 2.696 63.069 1.8C62.1303 0.73333 60.957 0.199997 59.549 0.199997ZM59.485 17.8C58.5037 17.8 57.6077 18.056 56.797 18.568C56.029 19.08 55.453 19.7627 55.069 20.616C54.813 21.2133 54.685 21.8747 54.685 22.6C54.685 23.4107 54.8557 24.136 55.197 24.776C55.581 25.5867 56.157 26.2267 56.925 26.696C57.693 27.1653 58.5463 27.4 59.485 27.4C60.6797 27.4 61.725 27.016 62.621 26.248C63.1757 25.7787 63.6023 25.224 63.901 24.584C64.157 23.9013 64.285 23.2187 64.285 22.536C64.285 22.024 64.1997 21.5333 64.029 21.064C63.773 20.2533 63.325 19.5493 62.685 18.952C61.7463 18.184 60.6797 17.8 59.485 17.8ZM64.285 26.632C63.0477 28.168 61.4477 28.936 59.485 28.936C57.565 28.936 55.965 28.1893 54.685 26.696V40.072V40.2C54.685 41.5227 55.1543 42.6533 56.093 43.592C57.0317 44.5307 58.1623 45 59.485 45C60.893 45 62.0663 44.488 63.005 43.464C63.8583 42.568 64.285 41.48 64.285 40.2V40.136V26.632ZM74.299 0.199997H74.171C72.7203 0.199997 71.5257 0.754664 70.587 1.864C69.819 2.76 69.435 3.784 69.435 4.936V5V31.688C70.0323 31.048 70.715 30.536 71.483 30.152C72.3363 29.7253 73.2537 29.512 74.235 29.512C74.9177 29.512 75.579 29.6187 76.219 29.832C77.5417 30.216 79.5043 31.176 82.107 32.712L100.539 43.656C100.624 43.7413 100.752 43.848 100.923 43.976C101.136 44.0613 101.307 44.1467 101.435 44.232C101.563 44.3173 101.691 44.3813 101.819 44.424C102.502 44.808 103.248 45 104.059 45C105.296 45 106.363 44.5947 107.259 43.784C108.326 42.8027 108.859 41.608 108.859 40.2C108.859 39.0053 108.454 37.9387 107.643 37C107.344 36.7013 106.64 36.2107 105.531 35.528L83.515 22.536L98.299 11.4C96.635 11.272 95.227 10.6107 94.075 9.416C92.923 8.17866 92.347 6.728 92.347 5.064C92.347 4.63733 92.3897 4.18933 92.475 3.72L79.035 13.96V5C79.035 3.76266 78.6297 2.696 77.819 1.8C76.8803 0.73333 75.707 0.199997 74.299 0.199997ZM98.619 0.263996C98.0217 0.263996 97.467 0.370663 96.955 0.583996C95.931 1.01066 95.163 1.608 94.651 2.376C94.4377 2.632 94.267 2.93066 94.139 3.272C93.9257 3.82666 93.819 4.424 93.819 5.064C93.819 6.088 94.0963 7.00533 94.651 7.816C95.5897 9.224 96.9123 9.928 98.619 9.928C99.3443 9.928 100.048 9.75733 100.731 9.416C101.542 9.032 102.203 8.43466 102.715 7.624C103.184 6.856 103.419 6.00266 103.419 5.064C103.419 3.86933 103.035 2.824 102.267 1.928C101.328 0.818663 100.112 0.263996 98.619 0.263996ZM74.235 30.984C73.211 30.984 72.2723 31.2827 71.419 31.88C70.139 32.776 69.4777 33.992 69.435 35.528V40.072V40.2C69.435 41.5227 69.883 42.6533 70.779 43.592C71.7603 44.5307 72.9123 45 74.235 45C75.643 45 76.8163 44.488 77.755 43.464C78.6083 42.568 79.035 41.48 79.035 40.2V40.136V35.656C79.035 34.2053 78.4803 33.0107 77.371 32.072C76.475 31.3467 75.4297 30.984 74.235 30.984ZM138.447 0.199997C137.466 0.199997 136.57 0.477331 135.759 1.032C135.034 1.50133 134.479 2.12 134.095 2.888L129.871 10.504C130.554 10.248 131.279 10.12 132.047 10.12C132.26 10.12 132.474 10.12 132.687 10.12C133.498 10.2053 134.287 10.44 135.055 10.824C135.098 10.8667 135.14 10.9093 135.183 10.952C135.652 11.208 136.079 11.528 136.463 11.912C136.89 12.3387 137.252 12.808 137.551 13.32L153.871 42.44C154.298 43.208 154.895 43.8267 155.663 44.296C156.431 44.7653 157.263 45 158.159 45C159.439 45 160.548 44.552 161.487 43.656C162.468 42.6747 162.959 41.5227 162.959 40.2C162.959 39.3893 162.746 38.6213 162.319 37.896L142.735 2.824C142.394 2.184 141.924 1.62933 141.327 1.16C140.943 0.861331 140.495 0.626664 139.983 0.455997C139.514 0.28533 139.002 0.199997 138.447 0.199997ZM131.919 11.528C130.17 11.5707 128.868 12.3387 128.015 13.832L114.511 37.896C114.127 38.6213 113.935 39.3893 113.935 40.2C113.935 41.48 114.383 42.5893 115.279 43.528C116.218 44.5093 117.37 45 118.735 45C119.631 45 120.463 44.7653 121.231 44.296C121.999 43.8267 122.596 43.208 123.023 42.44L136.463 18.376C136.762 17.736 136.911 17.0747 136.911 16.392C136.911 15.9227 136.847 15.4533 136.719 14.984C136.335 13.7467 135.567 12.808 134.415 12.168C133.69 11.7413 132.9 11.528 132.047 11.528C132.004 11.528 131.962 11.528 131.919 11.528ZM172.798 0.199997H172.734C171.283 0.199997 170.088 0.775997 169.15 1.928C168.382 2.78133 167.998 3.784 167.998 4.936V5V29.384C168.04 30.3227 168.339 31.176 168.894 31.944C169.832 33.2667 171.134 33.928 172.798 33.928C173.907 33.928 174.91 33.5867 175.806 32.904C176.958 32.008 177.555 30.8133 177.598 29.32V27.4H197.246H197.31C198.462 27.4 199.486 27.0373 200.382 26.312C201.534 25.3307 202.11 24.0933 202.11 22.6C202.11 21.4053 201.726 20.36 200.958 19.464C199.976 18.3547 198.76 17.8 197.31 17.8H197.246H177.598V9.8V5C177.598 4.104 177.768 3.22933 178.11 2.376C178.494 1.52266 179.048 0.79733 179.774 0.199997H172.798ZM183.55 0.199997C181.971 0.242663 180.734 0.92533 179.838 2.248C179.283 3.10133 179.006 4.01866 179.006 5C179.006 6.10933 179.347 7.112 180.03 8.008C180.968 9.20266 182.184 9.8 183.678 9.8H202.494C202.579 9.8 202.664 9.8 202.75 9.8C204.115 9.75733 205.246 9.224 206.142 8.2C206.995 7.304 207.422 6.23733 207.422 5C207.422 3.592 206.888 2.41866 205.822 1.48C204.968 0.669329 203.923 0.242663 202.686 0.199997C202.643 0.199997 202.622 0.199997 202.622 0.199997H202.558H183.55ZM172.798 35.4C170.835 35.4 169.235 34.6747 167.998 33.224V40.072V40.2C167.998 41.5227 168.446 42.6533 169.342 43.592C170.323 44.5307 171.475 45 172.798 45C172.926 45 173.011 45 173.054 45H202.366C202.451 45 202.536 45 202.622 45C203.944 45 205.075 44.5307 206.014 43.592C206.952 42.6533 207.422 41.5227 207.422 40.2C207.422 38.92 206.974 37.8107 206.078 36.872C205.182 35.9333 204.094 35.4427 202.814 35.4C202.643 35.4 202.515 35.4 202.43 35.4H177.598H172.798ZM217.234 0.199997C215.783 0.199997 214.588 0.754664 213.65 1.864C212.882 2.76 212.498 3.784 212.498 4.936V5V29.256C212.498 30.3653 212.86 31.3467 213.586 32.2C214.524 33.3947 215.762 33.992 217.298 33.992C218.45 33.992 219.474 33.6293 220.37 32.904C221.479 32.008 222.055 30.856 222.098 29.448V5C222.098 3.76266 221.692 2.696 220.882 1.8C219.943 0.73333 218.77 0.199997 217.362 0.199997H217.234ZM212.498 33.224V40.072V40.2C212.498 41.5227 212.946 42.6533 213.842 43.592C214.823 44.5307 215.975 45 217.298 45C217.298 45 217.34 45 217.426 45H247.122C248.359 45 249.426 44.5947 250.322 43.784C251.388 42.8453 251.922 41.672 251.922 40.264V40.136C251.879 38.6853 251.303 37.4907 250.194 36.552C249.34 35.784 248.338 35.4 247.186 35.4H247.122H222.098H217.298C216.274 35.4 215.314 35.1867 214.418 34.76C213.692 34.376 213.052 33.864 212.498 33.224ZM307.11 0.199997H306.982C305.531 0.199997 304.336 0.754664 303.398 1.864C302.63 2.76 302.246 3.784 302.246 4.936V5V20.552C302.246 20.68 302.246 20.8293 302.246 21C302.246 21.128 302.246 21.32 302.246 21.576C302.246 21.7893 302.246 21.96 302.246 22.088C302.246 22.6 302.246 23.0267 302.246 23.368C302.075 27.0373 300.88 30.0453 298.662 32.392C296.784 34.3973 294.608 35.4 292.134 35.4C290.47 35.4 288.891 34.888 287.398 33.864C285.904 32.84 284.688 31.432 283.75 29.64C283.28 30.8773 282.491 31.88 281.382 32.648C280.315 33.416 279.12 33.8 277.798 33.8C276.688 33.8 275.664 33.5227 274.726 32.968C276.262 36.3387 278.416 39.0907 281.19 41.224C284.518 43.7413 288.166 45 292.134 45C294.907 45 297.51 44.4027 299.942 43.208C302.416 41.9707 304.571 40.264 306.406 38.088C309.776 34.0773 311.59 29.3413 311.846 23.88C311.846 23.3253 311.846 22.6213 311.846 21.768C311.846 21.64 311.846 21.4693 311.846 21.256C311.846 21 311.846 20.808 311.846 20.68V5C311.846 3.76266 311.44 2.696 310.63 1.8C309.691 0.73333 308.518 0.199997 307.11 0.199997ZM277.798 22.664C276.603 22.664 275.558 23.0693 274.661 23.88C273.851 24.5627 273.339 25.416 273.126 26.44C273.04 26.696 272.998 27.016 272.998 27.4C272.998 27.6133 273.019 27.848 273.062 28.104C273.147 28.8293 273.339 29.448 273.638 29.96C274.022 30.6 274.534 31.1333 275.174 31.56C275.942 32.072 276.816 32.328 277.798 32.328C279.248 32.328 280.443 31.7947 281.382 30.728C282.192 29.7893 282.598 28.7227 282.598 27.528C282.598 26.1627 282.107 24.9893 281.126 24.008C280.23 23.112 279.12 22.664 277.798 22.664ZM338.26 0.199997C337.278 0.199997 336.382 0.477331 335.572 1.032C334.846 1.50133 334.292 2.12 333.908 2.888L329.684 10.504C330.366 10.248 331.092 10.12 331.86 10.12C332.073 10.12 332.286 10.12 332.5 10.12C333.31 10.2053 334.1 10.44 334.868 10.824C334.91 10.8667 334.953 10.9093 334.996 10.952C335.465 11.208 335.892 11.528 336.276 11.912C336.702 12.3387 337.065 12.808 337.364 13.32L353.684 42.44C354.11 43.208 354.708 43.8267 355.476 44.296C356.244 44.7653 357.076 45 357.972 45C359.252 45 360.361 44.552 361.3 43.656C362.281 42.6747 362.772 41.5227 362.772 40.2C362.772 39.3893 362.558 38.6213 362.132 37.896L342.548 2.824C342.206 2.184 341.737 1.62933 341.14 1.16C340.756 0.861331 340.308 0.626664 339.796 0.455997C339.326 0.28533 338.814 0.199997 338.26 0.199997ZM331.732 11.528C329.982 11.5707 328.681 12.3387 327.828 13.832L314.324 37.896C313.94 38.6213 313.748 39.3893 313.748 40.2C313.748 41.48 314.196 42.5893 315.092 43.528C316.03 44.5093 317.182 45 318.548 45C319.444 45 320.276 44.7653 321.044 44.296C321.812 43.8267 322.409 43.208 322.836 42.44L336.276 18.376C336.574 17.736 336.724 17.0747 336.724 16.392C336.724 15.9227 336.66 15.4533 336.532 14.984C336.148 13.7467 335.38 12.808 334.228 12.168C333.502 11.7413 332.713 11.528 331.86 11.528C331.817 11.528 331.774 11.528 331.732 11.528ZM372.61 0.199997H372.546C371.095 0.199997 369.901 0.775997 368.962 1.928C368.194 2.78133 367.81 3.80533 367.81 5V11.784C367.853 12.936 368.258 13.9173 369.026 14.728C369.965 15.7947 371.159 16.328 372.61 16.328C373.847 16.328 374.914 15.9227 375.81 15.112C376.877 14.1733 377.41 13.0213 377.41 11.656V9.8H393.474C393.602 9.8 393.709 9.8 393.794 9.8C394.733 9.84267 395.543 10.1627 396.226 10.76C397.165 11.5707 397.634 12.5733 397.634 13.768C397.634 15.1333 397.101 16.2213 396.034 17.032C395.394 17.5013 394.669 17.7573 393.858 17.8C393.773 17.8 393.623 17.8 393.41 17.8H377.41H374.85L372.61 17.736C371.629 17.736 370.711 17.5227 369.858 17.096C369.047 16.7547 368.365 16.2427 367.81 15.56V40.072V40.2C367.81 41.5227 368.258 42.6533 369.154 43.592C370.135 44.5307 371.287 45 372.61 45C374.018 45 375.191 44.488 376.13 43.464C376.983 42.568 377.41 41.48 377.41 40.2V40.136V27.4H393.538C393.538 27.4 393.559 27.4 393.602 27.4C393.645 27.4 393.687 27.4 393.73 27.4C397.57 27.3573 400.813 25.9493 403.458 23.176C405.975 20.5307 407.234 17.3947 407.234 13.768C407.234 10.312 406.082 7.304 403.778 4.744C401.261 1.928 398.125 0.434663 394.37 0.263996C394.114 0.22133 393.773 0.199997 393.346 0.199997H393.218H372.61ZM426.572 0.199997C425.591 0.199997 424.695 0.477331 423.884 1.032C423.159 1.50133 422.604 2.12 422.22 2.888L417.996 10.504C418.679 10.248 419.404 10.12 420.172 10.12C420.385 10.12 420.599 10.12 420.812 10.12C421.623 10.2053 422.412 10.44 423.18 10.824C423.223 10.8667 423.265 10.9093 423.308 10.952C423.777 11.208 424.204 11.528 424.588 11.912C425.015 12.3387 425.377 12.808 425.676 13.32L441.996 42.44C442.423 43.208 443.02 43.8267 443.788 44.296C444.556 44.7653 445.388 45 446.284 45C447.564 45 448.673 44.552 449.612 43.656C450.593 42.6747 451.084 41.5227 451.084 40.2C451.084 39.3893 450.871 38.6213 450.444 37.896L430.86 2.824C430.519 2.184 430.049 1.62933 429.452 1.16C429.068 0.861331 428.62 0.626664 428.108 0.455997C427.639 0.28533 427.127 0.199997 426.572 0.199997ZM420.044 11.528C418.295 11.5707 416.993 12.3387 416.14 13.832L402.636 37.896C402.252 38.6213 402.06 39.3893 402.06 40.2C402.06 41.48 402.508 42.5893 403.404 43.528C404.343 44.5093 405.495 45 406.86 45C407.756 45 408.588 44.7653 409.356 44.296C410.124 43.8267 410.721 43.208 411.148 42.44L424.588 18.376C424.887 17.736 425.036 17.0747 425.036 16.392C425.036 15.9227 424.972 15.4533 424.844 14.984C424.46 13.7467 423.692 12.808 422.54 12.168C421.815 11.7413 421.025 11.528 420.172 11.528C420.129 11.528 420.087 11.528 420.044 11.528ZM460.923 0.199997H460.859C459.408 0.199997 458.213 0.754664 457.275 1.864C456.507 2.76 456.123 3.784 456.123 4.936V5V11.784C456.165 12.8933 456.571 13.8747 457.339 14.728C458.277 15.7947 459.472 16.328 460.923 16.328C462.16 16.328 463.227 15.9227 464.123 15.112C465.189 14.1733 465.723 13.0213 465.723 11.656V9.8H478.843C478.971 9.8 479.077 9.8 479.163 9.8C480.101 9.84267 480.912 10.1627 481.595 10.76C482.533 11.5707 483.003 12.5733 483.003 13.768C483.003 15.1333 482.469 16.2213 481.403 17.032C480.763 17.5013 480.037 17.7573 479.227 17.8C479.141 17.8 478.992 17.8 478.779 17.8H465.723H463.163L460.923 17.736C459.941 17.736 459.024 17.5227 458.171 17.096C457.36 16.712 456.677 16.2 456.123 15.56V40.072V40.2C456.123 41.5227 456.571 42.6533 457.467 43.592C458.448 44.5307 459.6 45 460.923 45C462.331 45 463.504 44.488 464.443 43.464C465.296 42.568 465.723 41.48 465.723 40.2V40.136V27.4H474.043C474.128 27.528 474.213 27.656 474.299 27.784L474.363 27.848L484.411 40.072C484.453 38.28 485.136 36.7867 486.458 35.592C487.653 34.4827 489.083 33.928 490.747 33.928C491.131 33.928 491.493 33.9493 491.835 33.992L485.179 25.928C486.544 25.2027 487.76 24.2853 488.826 23.176C491.344 20.5307 492.603 17.3947 492.603 13.768C492.603 10.312 491.451 7.304 489.147 4.744C486.629 1.928 483.493 0.41333 479.739 0.199997C479.483 0.199997 479.141 0.199997 478.715 0.199997H478.651H460.923ZM490.747 35.4C489.424 35.4 488.293 35.848 487.354 36.744C486.416 37.6827 485.947 38.8347 485.947 40.2C485.947 40.968 486.096 41.672 486.395 42.312C486.693 42.9093 487.141 43.4427 487.739 43.912C488.464 44.5093 489.296 44.872 490.235 45C490.405 45 490.576 45 490.747 45C491.899 45 492.901 44.6373 493.755 43.912C494.949 42.9307 495.547 41.6933 495.547 40.2C495.547 39.2187 495.269 38.3227 494.715 37.512C494.373 37.0427 494.075 36.7013 493.819 36.488C492.923 35.7627 491.899 35.4 490.747 35.4ZM505.487 0.199997H505.359C503.908 0.199997 502.713 0.754664 501.775 1.864C501.007 2.76 500.623 3.784 500.623 4.936V5V18.504C501.903 17.0533 503.503 16.328 505.423 16.328C507.385 16.328 508.985 17.0747 510.223 18.568V5C510.223 3.76266 509.817 2.696 509.007 1.8C508.068 0.73333 506.895 0.199997 505.487 0.199997ZM505.423 17.8C504.441 17.8 503.545 18.056 502.735 18.568C501.967 19.08 501.391 19.7627 501.007 20.616C500.751 21.2133 500.623 21.8747 500.623 22.6C500.623 23.4107 500.793 24.136 501.135 24.776C501.519 25.5867 502.095 26.2267 502.863 26.696C503.631 27.1653 504.484 27.4 505.423 27.4C506.617 27.4 507.663 27.016 508.559 26.248C509.113 25.7787 509.54 25.224 509.839 24.584C510.095 23.9013 510.223 23.2187 510.223 22.536C510.223 22.024 510.137 21.5333 509.967 21.064C509.711 20.2533 509.263 19.5493 508.623 18.952C507.684 18.184 506.617 17.8 505.423 17.8ZM510.223 26.632C508.985 28.168 507.385 28.936 505.423 28.936C503.503 28.936 501.903 28.1893 500.623 26.696V40.072V40.2C500.623 41.5227 501.092 42.6533 502.031 43.592C502.969 44.5307 504.1 45 505.423 45C506.831 45 508.004 44.488 508.943 43.464C509.796 42.568 510.223 41.48 510.223 40.2V40.136V26.632ZM520.173 0.199997H520.109C518.658 0.199997 517.463 0.754664 516.525 1.864C515.757 2.76 515.373 3.784 515.373 4.936V5V40.072V40.2C515.373 41.5227 515.821 42.6533 516.717 43.592C517.655 44.5307 518.807 45 520.173 45H532.397C532.439 45 532.482 45 532.525 45C532.61 45 532.674 45 532.717 45C533.997 45 535.255 44.872 536.493 44.616C537.687 44.4027 538.882 44.0827 540.077 43.656C539.095 43.4 538.242 42.9307 537.517 42.248C536.962 41.736 536.493 41.16 536.109 40.52C535.639 39.5813 535.405 38.5787 535.405 37.512C535.405 36.616 535.597 35.7413 535.981 34.888C534.829 35.2293 533.655 35.4 532.461 35.4H524.973V9.8V5C524.973 3.976 525.207 3.016 525.677 2.12C526.061 1.39466 526.551 0.754664 527.149 0.199997H520.173ZM531.053 0.199997C529.517 0.242663 528.279 0.882664 527.341 2.12C526.743 2.97333 526.445 3.93333 526.445 5C526.445 6.28 526.871 7.38933 527.725 8.328C528.621 9.26666 529.73 9.75733 531.053 9.8H532.205C532.333 9.8 532.482 9.8 532.653 9.8C536.151 9.88533 539.117 11.1653 541.549 13.64C543.981 16.1147 545.197 19.1013 545.197 22.6C545.197 24.904 544.621 27.0373 543.469 29C542.317 30.9627 540.781 32.52 538.861 33.672C538.818 33.672 538.754 33.6933 538.669 33.736C537.73 34.504 537.154 35.5067 536.941 36.744C536.898 37 536.877 37.256 536.877 37.512C536.877 38.3227 537.047 39.0907 537.389 39.816C537.901 40.7547 538.605 41.4587 539.501 41.928C540.183 42.2693 540.909 42.44 541.677 42.44C542.402 42.44 543.085 42.2693 543.725 41.928C547.095 39.9653 549.783 37.2773 551.789 33.864C553.794 30.408 554.797 26.6533 554.797 22.6C554.797 18.632 553.837 14.9627 551.917 11.592C549.997 8.22133 547.394 5.53333 544.109 3.528C540.823 1.48 537.218 0.370664 533.293 0.199997C532.823 0.199997 532.503 0.199997 532.333 0.199997H531.053ZM593.281 0.199997H583.937C584.577 0.754664 585.089 1.43733 585.473 2.248C585.899 3.10133 586.113 4.01866 586.113 5C586.113 5.46933 586.07 5.91733 585.985 6.344C585.686 7.58133 584.683 9.20266 582.977 11.208L561.089 36.936L561.025 37.064C560.257 37.96 559.873 39.0053 559.873 40.2C559.873 40.2853 559.873 40.392 559.873 40.52C559.958 41.8427 560.513 42.952 561.536 43.848C562.433 44.616 563.457 45 564.609 45C564.694 45 564.907 45 565.249 45C565.633 45 565.889 45 566.017 45H575.169C574.401 44.3173 573.825 43.5067 573.441 42.568C573.142 41.8 572.993 41.0107 572.993 40.2C572.993 39.688 573.057 39.176 573.185 38.664C573.483 37.5547 574.486 35.9973 576.193 33.992L598.145 8.136C598.913 7.24 599.297 6.19466 599.297 5C599.297 4.95733 599.297 4.936 599.297 4.936C599.254 3.48533 598.699 2.312 597.633 1.416C597.633 1.37333 597.611 1.352 597.569 1.352C596.673 0.583997 595.649 0.199997 594.497 0.199997C593.942 0.199997 593.537 0.199997 593.281 0.199997ZM564.801 0.199997H564.673C563.35 0.199997 562.241 0.647998 561.345 1.544C560.363 2.52533 559.873 3.67733 559.873 5C559.873 6.408 560.385 7.58133 561.409 8.52C562.347 9.37333 563.435 9.8 564.673 9.8H564.737H579.969C581.633 9.8 582.934 9.096 583.873 7.688C584.385 6.87733 584.641 5.98133 584.641 5C584.641 3.63466 584.171 2.48266 583.233 1.544C582.379 0.690664 581.355 0.242663 580.161 0.199997H564.801ZM579.073 35.4C577.665 35.4 576.491 35.9547 575.553 37.064C574.785 37.96 574.401 39.0053 574.401 40.2C574.401 41.0107 574.614 41.7787 575.041 42.504C575.894 44.1253 577.217 44.9573 579.009 45H594.497C595.734 45 596.801 44.5947 597.697 43.784C598.721 42.8453 599.254 41.672 599.297 40.264V40.136C599.254 38.6853 598.678 37.4907 597.569 36.552C596.715 35.784 595.691 35.4 594.497 35.4H579.073ZM609.173 0.199997H609.109C607.658 0.199997 606.463 0.775997 605.525 1.928C604.757 2.78133 604.373 3.784 604.373 4.936V5V29.384C604.415 30.3227 604.714 31.176 605.269 31.944C606.207 33.2667 607.509 33.928 609.173 33.928C610.282 33.928 611.285 33.5867 612.181 32.904C613.333 32.008 613.93 30.8133 613.973 29.32V27.4H633.621H633.685C634.837 27.4 635.861 27.0373 636.757 26.312C637.909 25.3307 638.485 24.0933 638.485 22.6C638.485 21.4053 638.101 20.36 637.333 19.464C636.351 18.3547 635.135 17.8 633.685 17.8H633.621H613.973V9.8V5C613.973 4.104 614.143 3.22933 614.485 2.376C614.869 1.52266 615.423 0.79733 616.149 0.199997H609.173ZM619.925 0.199997C618.346 0.242663 617.109 0.92533 616.213 2.248C615.658 3.10133 615.381 4.01866 615.381 5C615.381 6.10933 615.722 7.112 616.405 8.008C617.343 9.20266 618.559 9.8 620.053 9.8H638.869C638.954 9.8 639.039 9.8 639.125 9.8C640.49 9.75733 641.621 9.224 642.517 8.2C643.37 7.304 643.797 6.23733 643.797 5C643.797 3.592 643.263 2.41866 642.197 1.48C641.343 0.669329 640.298 0.242663 639.061 0.199997C639.018 0.199997 638.997 0.199997 638.997 0.199997H638.933H619.925ZM609.173 35.4C607.21 35.4 605.61 34.6747 604.373 33.224V40.072V40.2C604.373 41.5227 604.821 42.6533 605.717 43.592C606.698 44.5307 607.85 45 609.173 45C609.301 45 609.386 45 609.429 45H638.741C638.826 45 638.911 45 638.997 45C640.319 45 641.45 44.5307 642.389 43.592C643.327 42.6533 643.797 41.5227 643.797 40.2C643.797 38.92 643.349 37.8107 642.453 36.872C641.557 35.9333 640.469 35.4427 639.189 35.4C639.018 35.4 638.89 35.4 638.805 35.4H613.973H609.173Z" fill="white"/>
</svg>
